<?xml version="1.0" encoding="UTF-8" standalone="no"?>
<svg
   xmlns:dc="http://purl.org/dc/elements/1.1/"
   xmlns:cc="http://creativecommons.org/ns#"
   xmlns:rdf="http://www.w3.org/1999/02/22-rdf-syntax-ns#"
   xmlns:svg="http://www.w3.org/2000/svg"
   xmlns="http://www.w3.org/2000/svg"
   viewBox="0 0 841.88977 595.27557"
   id="svg2"
   height="595.27557"
   width="841.88977"
   version="1.1">
  <metadata
     id="metadata20">
    <rdf:RDF>
      <cc:Work
         rdf:about="">
        <dc:format>image/svg+xml</dc:format>
        <dc:type
           rdf:resource="http://purl.org/dc/dcmitype/StillImage" />
      </cc:Work>
    </rdf:RDF>
  </metadata>
  <defs
     id="defs18" />
  <path
     id="path4"
     style="fill:#ffffff;fill-rule:evenodd"
     d="m 123.3071,0 0,595.2756 595.2756,0 0,-595.2756 -595.2756,0 z" />
  <g
     id="g6">
    <path
       id="path8"
       style="fill:#9a6f4c;fill-rule:evenodd"
       d="m 460.5987,299.4109 c -0.243,2.6844 -0.1659,5.2786 0.0778,7.6583 0.593,5.79 -1.3422,30.608 41.959,25.9879 14.4314,-1.5392 26.229,-10.2519 44.3446,-12.3698 18.8409,-2.2022 49.7068,12.6465 79.9085,16.7553 10.3705,1.4109 21.5077,-0.4705 32.8827,-4.3401 -0.8049,5.427 -1.7913,10.7956 -2.9546,16.0995 -16.6108,6.2144 -36.1231,5.4859 -56.0851,2.6629 14.7392,14.2279 33.0979,19.0379 51.0217,16.5383 -1.4679,4.7582 -3.0745,9.4561 -4.8223,14.0859 -8.6389,-0.7952 -17.2013,-1.965 -25.9159,-4.3654 -17.0192,-4.6882 -28.6152,-11.5786 -46.5857,-18.8571 -12.7269,-5.1554 -32.9955,-4.4853 -46.7295,-4.3894 23.4247,12.7431 44.5163,31.2612 69.4245,40.7808 15.0529,5.7536 28.6268,6.5197 41.5786,6.0556 -2.7634,5.7576 -5.7465,11.3919 -8.9454,16.8863 -6.3401,0.3869 -12.6789,0.7745 -19.0191,1.1614 3.8502,3.6123 7.6972,7.2215 11.5474,10.8339 -6.4347,9.7043 -13.5467,18.9225 -21.275,27.5808 -12.8403,-7.727 -31.7324,-13.3484 -42.6292,-17.0814 -12.9919,-4.4497 -28.8653,-4.9266 -42.4476,-6.9648 13.4728,11.48 24.9762,24.9755 41.2701,31.8898 10.0244,4.254 21.4105,4.2728 33.0538,3.4562 -5.6752,5.5923 -11.6265,10.9046 -17.8266,15.9207 -6.6357,-0.9663 -13.2674,-1.9313 -19.9031,-2.8976 3.5586,3.3389 7.1153,6.6746 10.6732,10.0135 -4.2028,3.0796 -8.5093,6.0238 -12.9116,8.8319 -2.3707,-2.1056 -4.5567,-4.5313 -6.4704,-7.5027 C 533.6836,478.105 516.0656,469.9003 504.0632,460.5603 489.9313,449.5631 486.361,429.5135 474.918,415.74 c -8.7763,-10.5637 -21.0729,-17.6219 -31.6087,-26.4325 0.9974,14.3063 -4.5112,28.713 3.8438,40.3687 16.7534,23.3716 43.7205,38.8988 66.0059,57.0735 8.3569,7.2662 16.7126,14.5305 25.0695,21.7967 -3.6895,2.0635 -7.4347,4.0388 -11.2396,5.9111 -7.3621,-7.1923 -13.5862,-10.2124 -21.5848,-15.1987 3.639,7.009 6.8119,13.8702 9.4982,20.7262 -4.335,1.8424 -8.7289,3.5715 -13.1877,5.1638 -4.1269,-6.6849 -8.5455,-13.1378 -13.8772,-18.8745 -10.3906,-11.1807 -25.2458,-17.268 -36.8639,-27.1648 -7.0414,-5.998 -11.3038,-13.5526 -17.6005,-20.3289 -3.2611,9.3064 -9.8838,18.1313 -11.0736,27.9198 -1.1893,9.7821 2.5158,19.9446 3.4516,29.7558 -7.3252,-9.6395 -15.5739,-20.0593 -20.3619,-31.1764 -4.9481,-11.4904 -3.3045,-24.0105 -5.4406,-36.3383 -15.524,7.3311 -30.1971,14.5746 -31.0804,26.8343 -1.0201,14.1553 17.1111,25.3618 23.1408,38.2099 3.9475,8.4107 6.6376,16.1611 9.2429,24.2828 -5.3823,-0.442 -10.7172,-1.0525 -15.9965,-1.8419 -3.0576,-16.6847 -11.0795,-32.6189 -25.157,-37.9545 0.008,9.8371 -1.1866,21.3035 -6.0401,31.1472 -5.4432,-1.5762 -10.8073,-3.3415 -16.0872,-5.2838 4.6118,-10.9583 5.2935,-22.3496 2.0298,-34.2353 -11.5519,8.1723 -23.3055,13.8034 -35.2631,19.0483 -6.2727,-3.4646 -12.375,-7.2021 -18.2933,-11.193 10.239,-5.4328 21.8862,-6.4665 29.936,-14.1863 7.8061,-7.4866 9.1152,-19.6186 13.6731,-29.4279 -20.1189,4.7375 -38.6357,-1.0576 -59.8006,2.8405 -6.3284,1.1653 -14.3575,6.335 -20.4448,10.4697 -3.9209,-3.9468 -7.7063,-8.0284 -11.3498,-12.2357 3.3914,-2.7387 7.7549,-5.6713 13.3329,-8.8041 -6.5113,0.2515 -13.4191,0.3033 -20.4086,0.2482 -3.0311,-3.8405 -5.9474,-7.7749 -8.7458,-11.7982 6.0031,-1.3817 12.4372,-2.6305 16.6089,-4.5696 -7.1606,-1.0298 -15.0898,-2.928 -23.1039,-5.2669 -3.0596,-4.8878 -5.9552,-9.8877 -8.6661,-14.9997 5.6104,-0.0966 10.9318,0.0142 17.0159,0.9883 27.3423,4.3784 54.1902,19.1422 81.6466,15.5467 23.4338,-3.0693 54.069,-19.4229 65.155,-38.0097 -21.1623,7.2416 -38.7213,10.0471 -62.1019,11.1858 -20.6296,1.0045 -50.6465,-5.4892 -71.0454,-2.252 -10.4878,1.6649 -21.5317,6.1541 -31.956,10.0607 -2.7614,-5.3551 -5.333,-10.8248 -7.6946,-16.4022 10.3842,-1.6759 27.6035,-12.0795 35.6079,-20.811 -15.3866,0.1303 -29.9819,0.2605 -42.2435,3.2475 -1.5956,-4.7763 -3.0492,-9.6174 -4.348,-14.5208 6.4089,0.1594 15.0892,-2.0589 20.9277,-4.2805 -9.2953,-1.8334 -17.6218,-5.777 -24.4538,-11.027 -0.687,-3.5113 -1.3007,-7.0479 -1.8328,-10.611 15.0924,10.6012 40.0193,14.6051 56.9134,11.0257 22.3502,-4.7355 63.8698,-21.6937 84.0522,-21.2795 20.1831,0.4141 33.7577,8.2383 42.4685,6.8385 20.3223,-3.2664 19.7637,-24.0508 19.1701,-29.842 -0.0208,-0.2003 -0.0571,-0.4271 -0.1083,-0.6721 l 75.95,0 z m 82.2279,93.8324 c 13.9181,0.7284 25.8505,3.162 35.2845,11.8961 11.2999,10.4625 21.6315,24.1564 30.3222,36.8723 -14.3821,-6.4432 -30.1336,-11.1236 -42.7205,-20.6043 -9.1833,-6.9163 -16.2499,-18.7761 -22.8862,-28.1641 z M 466.3031,373.175 c 13.0697,3.1146 28.5905,1.0745 40.0595,8.0698 13.3958,8.1716 22.3742,23.695 33.1368,35.1173 -14.9608,-5.1496 -30.1012,-8.4859 -43.6071,-16.7236 -11.0257,-6.7244 -15.6167,-19.2012 -29.5892,-26.4635 z m -110.1179,69.3661 c 4.4789,-11.3542 10.0847,-20.3858 17.8753,-27.6819 9.725,-9.108 21.8142,-14.2927 33.8308,-20.0515 -5.8197,11.0757 -8.6045,24.6762 -17.7359,33.2282 -8.4198,7.8858 -23.2944,10.132 -33.9702,14.5052 z m -98.133,-71.1146 c 6.4413,3.007 18.43,7.1236 24.8719,10.1307 -13.5403,-0.7414 -31.6093,-0.3273 -34.7887,2.6325 2.011,-5.2715 5.4088,-9.4334 9.9168,-12.7632 z m 11.5747,-10.3485 c 4.1412,-3.5567 14.7346,-14.7185 26.8485,-14.5526 18.592,0.2541 45.5377,9.2857 57.9056,19.338 -19.7417,2.4439 -40.1814,4.5268 -58.1143,4.2812 -11.6997,-0.1601 -15.7262,-4.8425 -26.6398,-9.0666 z" />
    <path
       id="path10"
       style="fill:#3f7d56;fill-rule:evenodd"
       d="m 433.4035,56.5094 c 6.8489,0.3506 13.6252,0.9909 20.3152,1.9053 -7.8469,9.6006 -13.5707,22.5933 -9.2538,44.1412 5.8275,-23.2789 22.4169,-33.1375 36.4121,-38.8133 7.0135,1.8036 13.9058,3.9156 20.6607,6.3207 -18.7923,13.0866 -46.6809,27.2898 -44.1295,65.851 9.994,-22.7553 30.3261,-29.7662 51.7139,-29.6508 13.0724,0.0706 27.2646,-8.8936 35.1802,-16.0321 5.438,3.2514 10.7412,6.7089 15.8934,10.3647 -4.4847,4.1762 -11.8015,11.3368 -19.5784,13.1909 -11.9473,2.8477 -30.9424,4.6875 -43.5844,11.3238 -26.8465,14.0964 -34.4193,37.8814 -37.2598,73.2994 16.0489,-10.0082 28.1077,-20.0359 41.2792,-31.7564 14.0224,-12.4761 17.8532,-30.6093 30.9476,-40.1457 7.4263,-5.4082 24.9315,-4.0129 34.4886,-6.5443 3.2093,-0.8503 6.8716,-3.1211 10.9584,-5.9176 3.8839,3.3182 7.6647,6.7536 11.3309,10.3057 -3.0155,2.72 -5.2053,7.5637 -9.0484,8.8722 -12.2001,4.1542 -26.9107,-0.1853 -37.1717,7.6104 -12.3063,9.3504 -15.3089,23.958 -23.1137,37.298 14.7677,-3.8722 31.5354,-2.742 44.9098,-10.1028 13.3633,-7.3557 23.5958,-27.8407 33.8535,-34.0279 4.0991,4.4361 8.0329,9.0238 11.7944,13.7561 -26.0676,12.1287 -22.1072,23.38 -38.5833,36.1147 -16.1805,12.5046 -54.358,9.0782 -77.4483,23.019 -16.1267,9.7373 -29.6255,22.2523 -32.3863,41.9869 23.332,-15.6815 43.1269,-6.8774 61.8576,-13.8643 24.0099,-8.9577 28.7409,-35.6753 50.9005,-47.8313 13.9887,-7.6738 34.7479,-13.2583 53.9323,-13.0315 2.6681,4.4581 5.1982,9.0102 7.5812,13.6466 -12.552,0.6033 -34.7071,2.2164 -44.845,6.6661 -19.7118,8.6531 -26.7474,30.1459 -35.0032,44.8838 19.5473,-0.2793 34.0888,-6.9746 48.7515,-15.0937 12.6602,-7.0115 25.8259,-17.7521 35.0953,-28.3015 1.9941,4.2643 3.8697,8.5954 5.6156,12.9907 -22.603,24.4052 -42.2481,39.1347 -77.2144,51.2045 31.0973,8.1042 63.7512,6.4056 86.6082,-22.3327 1.4705,5.7303 2.733,11.539 3.7835,17.4235 -17.7139,23.1195 -42.7776,26.4843 -68.2975,28.2257 -34.1439,2.3292 -69.1925,-21.8227 -100.1265,-13.5468 -22.2679,5.9571 -28.6294,18.5026 -29.6242,29.4933 l -75.95,0 c -1.4322,-6.8372 -14.9381,-30.3824 -45.2104,-32.4083 -30.3902,-2.0337 -73.5359,18.8324 -101.9988,15.8228 -23.9898,-2.5366 -41.9117,-15.8727 -53.8072,-29.6994 1.0687,-5.6875 2.3364,-11.3044 3.7984,-16.8455 7.6545,13.3439 21.5226,28.6042 38.0589,26.5413 -9.377,-15.2459 -18.8168,-30.8192 -34.7174,-38.031 1.0039,-3.1548 2.0687,-6.2825 3.1976,-9.3803 13.8682,0.008 29.8653,22.5285 45.5799,38.068 5.9616,5.8962 19.3386,5.1257 26.1641,4.4005 -5.6,-7.7581 -21.7676,-25.9464 -37.2015,-35.7907 -11.5935,-7.3939 -23.2899,-9.6103 -32.6832,-11.6129 1.3493,-3.4646 2.7751,-6.891 4.278,-10.2765 7.8015,-0.4277 15.8455,1.1276 23.7695,4.1412 20.2401,7.6979 36.941,32.0376 54.5537,40.6072 15.5416,7.5611 32.8705,-0.0655 38.6539,-0.7862 -2.0272,-3.2961 -7.3842,-10.156 -16.5797,-13.8001 -15.0315,-5.9571 -27.7759,-5.8106 -40.9993,-12.2532 -18.684,-9.1022 -36.022,-24.3637 -43.6596,-47.5934 3.2605,-5.2332 6.7134,-10.3336 10.353,-15.2913 3.8742,13.9919 12.4412,32.0259 29.7694,43.0808 15.3406,9.7873 42.9759,5.5041 59.0274,15.2013 16.5668,10.0069 27.9736,18.7644 37.8652,30.98 12.2311,5.1671 24.1668,8.5948 32.1912,9.5533 -9.7937,-20.929 -26.9684,-40.1509 -47.2849,-49.0762 -23.7565,-10.436 -52.7528,-9.5274 -74.9617,-22.0813 -12.8481,-7.2636 -22.6509,-25.227 -25.9859,-41.1062 3.7491,-4.4179 7.6512,-8.7004 11.7023,-12.8384 4.3357,13.1903 14.5286,27.4603 25.776,34.7 14.2609,9.1793 35.6299,3.3363 51.0496,11.2921 -1.2437,-19.7929 -9.0413,-31.6216 -31.9346,-35.4673 -11.2312,-1.8866 -25.2815,-10.6647 -32.2328,-22.566 2.5062,-2.2177 5.057,-4.3843 7.6538,-6.4983 1.525,1.4213 3.0829,2.733 4.6629,3.9053 14.261,10.5792 35.63,6.834 51.0496,16.303 -5.6687,-11.027 -14.9264,-27.8147 -26.4648,-40.6402 3.6377,-2.162 7.3317,-4.2332 11.0879,-6.206 4.4776,4.0408 9.5028,7.8709 14.9375,11.7613 0.7486,-4.939 1.2424,-12.1119 0.9735,-19.3813 3.5812,-1.5587 7.2079,-3.0337 10.8753,-4.4231 2.9559,16.5142 1.2437,39.7879 7.6065,49.0937 9.1541,13.3866 27.9483,16.6925 45.7872,24.1972 0,-10.6317 -2.9656,-30.9586 -10.8267,-39.9507 -8.5482,-9.7788 -32.1744,-17.9744 -37.499,-35.1957 4.6123,-1.6286 9.2856,-3.1192 14.0218,-4.4678 1.2475,2.0589 2.6532,4.0116 4.3051,5.8385 10.8767,12.0283 25.0598,6.5339 41.416,25.2685 -1.4355,-10.5345 -2.1387,-26.0546 -11.1443,-33.9041 -1.431,-1.2476 -2.954,-2.4828 -4.5554,-3.7012 8.4561,-1.2689 17.0464,-2.1121 25.7604,-2.4743 4.1438,3.4393 9.0426,7.7432 13.607,13.6109 2.7654,-3.8853 6.1658,-8.519 8.9694,-13.5215 z m -100.1271,86.7865 c 14.0036,9.9875 40.4548,23.0734 51.8837,36.1464 7.8637,8.9947 6.6214,23.3113 6.6214,33.943 -17.839,-7.5047 -33.4285,-15.4151 -42.5832,-28.8031 -7.5851,-11.0918 -9.7043,-25.6035 -15.9219,-41.2863 z" />
    <path
       id="path12"
       style="fill:#000200;fill-rule:evenodd"
       d="m 420.9449,42.52 c 140.5159,0 255.1184,114.6019 255.1184,255.1178 0,140.5159 -114.6025,255.1184 -255.1184,255.1184 -140.5159,0 -255.1178,-114.6025 -255.1178,-255.1184 C 165.8271,157.1219 280.429,42.52 420.9449,42.52 Z m 0,5.1931 c 137.6552,0 249.9254,112.2694 249.9254,249.9247 0,137.6553 -112.2702,249.9254 -249.9254,249.9254 -137.6553,0 -249.9248,-112.2701 -249.9248,-249.9254 0,-137.6553 112.2695,-249.9247 249.9248,-249.9247 z" />
    <path
       id="path14"
       style="fill:#ffffff;fill-rule:evenodd"
       d="m 420.9449,47.7131 c 137.6552,0 249.9254,112.2694 249.9254,249.9247 0,137.6553 -112.2702,249.9254 -249.9254,249.9254 -137.6553,0 -249.9248,-112.2701 -249.9248,-249.9254 0,-137.6553 112.2695,-249.9247 249.9248,-249.9247 z m 121.8817,345.5302 c 13.9181,0.7284 25.8505,3.162 35.2845,11.8961 11.2999,10.4625 21.6315,24.1564 30.3222,36.8723 -14.3821,-6.4432 -30.1336,-11.1236 -42.7205,-20.6043 -9.1833,-6.9163 -16.2499,-18.7761 -22.8862,-28.1641 z M 466.3031,373.175 c 13.0697,3.1146 28.5905,1.0745 40.0595,8.0698 13.3958,8.1716 22.3742,23.695 33.1368,35.1173 -14.9608,-5.1496 -30.1012,-8.4859 -43.6071,-16.7236 -11.0257,-6.7244 -15.6167,-19.2012 -29.5892,-26.4635 z m -110.1179,69.3661 c 4.4789,-11.3542 10.0847,-20.3858 17.8753,-27.6819 9.725,-9.108 21.8142,-14.2927 33.8308,-20.0515 -5.8197,11.0757 -8.6045,24.6762 -17.7359,33.2282 -8.4198,7.8858 -23.2944,10.132 -33.9702,14.5052 z m -98.133,-71.1146 c 6.4413,3.007 18.43,7.1236 24.8719,10.1307 -13.5403,-0.7414 -31.6093,-0.3273 -34.7887,2.6325 2.011,-5.2715 5.4088,-9.4334 9.9168,-12.7632 z m 11.5747,-10.3485 c 4.1412,-3.5567 14.7346,-14.7185 26.8485,-14.5526 18.592,0.2541 45.5377,9.2857 57.9056,19.338 -19.7417,2.4439 -40.1814,4.5268 -58.1143,4.2812 -11.6997,-0.1601 -15.7262,-4.8425 -26.6398,-9.0666 z M 433.4035,56.5094 c 6.8489,0.3506 13.6252,0.9909 20.3152,1.9053 -7.8469,9.6006 -13.5707,22.5933 -9.2538,44.1412 5.8275,-23.2789 22.4169,-33.1375 36.4121,-38.8133 7.0135,1.8036 13.9058,3.9156 20.6607,6.3207 -18.7923,13.0866 -46.6809,27.2898 -44.1295,65.851 9.994,-22.7553 30.3261,-29.7662 51.7139,-29.6508 13.0724,0.0706 27.2646,-8.8936 35.1802,-16.0321 5.438,3.2514 10.7412,6.7089 15.8934,10.3647 -4.4847,4.1762 -11.8015,11.3368 -19.5784,13.1909 -11.9473,2.8477 -30.9424,4.6875 -43.5844,11.3238 -26.8465,14.0964 -34.4193,37.8814 -37.2598,73.2994 16.0489,-10.0082 28.1077,-20.0359 41.2792,-31.7564 14.0224,-12.4761 17.8532,-30.6093 30.9476,-40.1457 7.4263,-5.4082 24.9315,-4.0129 34.4886,-6.5443 3.2093,-0.8503 6.8716,-3.1211 10.9584,-5.9176 3.8839,3.3182 7.6647,6.7536 11.3309,10.3057 -3.0155,2.72 -5.2053,7.5637 -9.0484,8.8722 -12.2001,4.1542 -26.9107,-0.1853 -37.1717,7.6104 -12.3063,9.3504 -15.3089,23.958 -23.1137,37.298 14.7677,-3.8722 31.5354,-2.742 44.9098,-10.1028 13.3633,-7.3557 23.5958,-27.8407 33.8535,-34.0279 4.0991,4.4361 8.0329,9.0238 11.7944,13.7561 -26.0676,12.1287 -22.1072,23.38 -38.5833,36.1147 -16.1805,12.5046 -54.358,9.0782 -77.4483,23.019 -16.1267,9.7373 -29.6255,22.2523 -32.3863,41.9869 23.332,-15.6815 43.1269,-6.8774 61.8576,-13.8643 24.0099,-8.9577 28.7409,-35.6753 50.9005,-47.8313 13.9887,-7.6738 34.7479,-13.2583 53.9323,-13.0315 2.6681,4.4581 5.1982,9.0102 7.5812,13.6466 -12.552,0.6033 -34.7071,2.2164 -44.845,6.6661 -19.7118,8.6531 -26.7474,30.1459 -35.0032,44.8838 19.5473,-0.2793 34.0888,-6.9746 48.7515,-15.0937 12.6602,-7.0115 25.8259,-17.7521 35.0953,-28.3015 1.9941,4.2643 3.8697,8.5954 5.6156,12.9907 -22.603,24.4052 -42.2481,39.1347 -77.2144,51.2045 31.0973,8.1042 63.7512,6.4056 86.6082,-22.3327 1.4705,5.7303 2.733,11.539 3.7835,17.4235 -17.7139,23.1195 -42.7776,26.4843 -68.2975,28.2257 -34.1439,2.3292 -69.1925,-21.8227 -100.1265,-13.5468 -22.2679,5.9571 -28.6294,18.5026 -29.6242,29.4933 -0.243,2.6844 -0.1659,5.2786 0.0778,7.6583 0.593,5.79 -1.3422,30.608 41.959,25.9879 14.4314,-1.5392 26.229,-10.2519 44.3446,-12.3698 18.8409,-2.2022 49.7068,12.6465 79.9085,16.7553 10.3705,1.4109 21.5077,-0.4705 32.8827,-4.3401 -0.8049,5.427 -1.7913,10.7956 -2.9546,16.0995 -16.6108,6.2144 -36.1231,5.4859 -56.0851,2.6629 14.7392,14.2279 33.0979,19.0379 51.0217,16.5383 -1.4679,4.7582 -3.0745,9.4561 -4.8223,14.0859 -8.6389,-0.7952 -17.2013,-1.965 -25.9159,-4.3654 -17.0192,-4.6882 -28.6152,-11.5786 -46.5857,-18.8571 -12.7269,-5.1554 -32.9955,-4.4853 -46.7295,-4.3894 23.4247,12.7431 44.5163,31.2612 69.4245,40.7808 15.0529,5.7536 28.6268,6.5197 41.5786,6.0556 -2.7634,5.7576 -5.7465,11.3919 -8.9454,16.8863 -6.3401,0.3869 -12.6789,0.7745 -19.0191,1.1614 3.8502,3.6123 7.6972,7.2215 11.5474,10.8339 -6.4347,9.7043 -13.5467,18.9225 -21.275,27.5808 -12.8403,-7.727 -31.7324,-13.3484 -42.6292,-17.0814 -12.9919,-4.4497 -28.8653,-4.9266 -42.4476,-6.9648 13.4728,11.48 24.9762,24.9755 41.2701,31.8898 10.0244,4.254 21.4105,4.2728 33.0538,3.4562 -5.6752,5.5923 -11.6265,10.9046 -17.8266,15.9207 -6.6357,-0.9663 -13.2674,-1.9313 -19.9031,-2.8976 3.5586,3.3389 7.1153,6.6746 10.6732,10.0135 -4.2028,3.0796 -8.5093,6.0238 -12.9116,8.8319 -2.3707,-2.1056 -4.5567,-4.5313 -6.4704,-7.5027 C 533.6836,478.105 516.0656,469.9003 504.0632,460.5603 489.9313,449.5631 486.361,429.5135 474.918,415.74 c -8.7763,-10.5637 -21.0729,-17.6219 -31.6087,-26.4325 0.9974,14.3063 -4.5112,28.713 3.8438,40.3687 16.7534,23.3716 43.7205,38.8988 66.0059,57.0735 8.3569,7.2662 16.7126,14.5305 25.0695,21.7967 -3.6895,2.0635 -7.4347,4.0388 -11.2396,5.9111 -7.3621,-7.1923 -13.5862,-10.2124 -21.5848,-15.1987 3.639,7.009 6.8119,13.8702 9.4982,20.7262 -4.335,1.8424 -8.7289,3.5715 -13.1877,5.1638 -4.1269,-6.6849 -8.5455,-13.1378 -13.8772,-18.8745 -10.3906,-11.1807 -25.2458,-17.268 -36.8639,-27.1648 -7.0414,-5.998 -11.3038,-13.5526 -17.6005,-20.3289 -3.2611,9.3064 -9.8838,18.1313 -11.0736,27.9198 -1.1893,9.7821 2.5158,19.9446 3.4516,29.7558 -7.3252,-9.6395 -15.5739,-20.0593 -20.3619,-31.1764 -4.9481,-11.4904 -3.3045,-24.0105 -5.4406,-36.3383 -15.524,7.3311 -30.1971,14.5746 -31.0804,26.8343 -1.0201,14.1553 17.1111,25.3618 23.1408,38.2099 3.9475,8.4107 6.6376,16.1611 9.2429,24.2828 -5.3823,-0.442 -10.7172,-1.0525 -15.9965,-1.8419 -3.0576,-16.6847 -11.0795,-32.6189 -25.157,-37.9545 0.008,9.8371 -1.1866,21.3035 -6.0401,31.1472 -5.4432,-1.5762 -10.8073,-3.3415 -16.0872,-5.2838 4.6118,-10.9583 5.2935,-22.3496 2.0298,-34.2353 -11.5519,8.1723 -23.3055,13.8034 -35.2631,19.0483 -6.2727,-3.4646 -12.375,-7.2021 -18.2933,-11.193 10.239,-5.4328 21.8862,-6.4665 29.936,-14.1863 7.8061,-7.4866 9.1152,-19.6186 13.6731,-29.4279 -20.1189,4.7375 -38.6357,-1.0576 -59.8006,2.8405 -6.3284,1.1653 -14.3575,6.335 -20.4448,10.4697 -3.9209,-3.9468 -7.7063,-8.0284 -11.3498,-12.2357 3.3914,-2.7387 7.7549,-5.6713 13.3329,-8.8041 -6.5113,0.2515 -13.4191,0.3033 -20.4086,0.2482 -3.0311,-3.8405 -5.9474,-7.7749 -8.7458,-11.7982 6.0031,-1.3817 12.4372,-2.6305 16.6089,-4.5696 -7.1606,-1.0298 -15.0898,-2.928 -23.1039,-5.2669 -3.0596,-4.8878 -5.9552,-9.8877 -8.6661,-14.9997 5.6104,-0.0966 10.9318,0.0142 17.0159,0.9883 27.3423,4.3784 54.1902,19.1422 81.6466,15.5467 23.4338,-3.0693 54.069,-19.4229 65.155,-38.0097 -21.1623,7.2416 -38.7213,10.0471 -62.1019,11.1858 -20.6296,1.0045 -50.6465,-5.4892 -71.0454,-2.252 -10.4878,1.6649 -21.5317,6.1541 -31.956,10.0607 -2.7614,-5.3551 -5.333,-10.8248 -7.6946,-16.4022 10.3842,-1.6759 27.6035,-12.0795 35.6079,-20.811 -15.3866,0.1303 -29.9819,0.2605 -42.2435,3.2475 -1.5956,-4.7763 -3.0492,-9.6174 -4.348,-14.5208 6.4089,0.1594 15.0892,-2.0589 20.9277,-4.2805 -9.2953,-1.8334 -17.6218,-5.777 -24.4538,-11.027 -0.687,-3.5113 -1.3007,-7.0479 -1.8328,-10.611 15.0924,10.6012 40.0193,14.6051 56.9134,11.0257 22.3502,-4.7355 63.8698,-21.6937 84.0522,-21.2795 20.1831,0.4141 33.7577,8.2383 42.4685,6.8385 20.3223,-3.2664 19.7637,-24.0508 19.1701,-29.842 -0.0208,-0.2003 -0.0571,-0.4271 -0.1083,-0.6721 -1.4322,-6.8372 -14.9381,-30.3824 -45.2104,-32.4083 -30.3902,-2.0337 -73.5359,18.8324 -101.9988,15.8228 -23.9898,-2.5366 -41.9117,-15.8727 -53.8072,-29.6994 1.0687,-5.6875 2.3364,-11.3044 3.7984,-16.8455 7.6545,13.3439 21.5226,28.6042 38.0589,26.5413 -9.377,-15.2459 -18.8168,-30.8192 -34.7174,-38.031 1.0039,-3.1548 2.0687,-6.2825 3.1976,-9.3803 13.8682,0.008 29.8653,22.5285 45.5799,38.068 5.9616,5.8962 19.3386,5.1257 26.1641,4.4005 -5.6,-7.7581 -21.7676,-25.9464 -37.2015,-35.7907 -11.5935,-7.3939 -23.2899,-9.6103 -32.6832,-11.6129 1.3493,-3.4646 2.7751,-6.891 4.278,-10.2765 7.8015,-0.4277 15.8455,1.1276 23.7695,4.1412 20.2401,7.6979 36.941,32.0376 54.5537,40.6072 15.5416,7.5611 32.8705,-0.0655 38.6539,-0.7862 -2.0272,-3.2961 -7.3842,-10.156 -16.5797,-13.8001 -15.0315,-5.9571 -27.7759,-5.8106 -40.9993,-12.2532 -18.684,-9.1022 -36.022,-24.3637 -43.6596,-47.5934 3.2605,-5.2332 6.7134,-10.3336 10.353,-15.2913 3.8742,13.9919 12.4412,32.0259 29.7694,43.0808 15.3406,9.7873 42.9759,5.5041 59.0274,15.2013 16.5668,10.0069 27.9736,18.7644 37.8652,30.98 12.2311,5.1671 24.1668,8.5948 32.1912,9.5533 -9.7937,-20.929 -26.9684,-40.1509 -47.2849,-49.0762 -23.7565,-10.436 -52.7528,-9.5274 -74.9617,-22.0813 -12.8481,-7.2636 -22.6509,-25.227 -25.9859,-41.1062 3.7491,-4.4179 7.6512,-8.7004 11.7023,-12.8384 4.3357,13.1903 14.5286,27.4603 25.776,34.7 14.2609,9.1793 35.6299,3.3363 51.0496,11.2921 -1.2437,-19.7929 -9.0413,-31.6216 -31.9346,-35.4673 -11.2312,-1.8866 -25.2815,-10.6647 -32.2328,-22.566 2.5062,-2.2177 5.057,-4.3843 7.6538,-6.4983 1.525,1.4213 3.0829,2.733 4.6629,3.9053 14.261,10.5792 35.63,6.834 51.0496,16.303 -5.6687,-11.027 -14.9264,-27.8147 -26.4648,-40.6402 3.6377,-2.162 7.3317,-4.2332 11.0879,-6.206 4.4776,4.0408 9.5028,7.8709 14.9375,11.7613 0.7486,-4.939 1.2424,-12.1119 0.9735,-19.3813 3.5812,-1.5587 7.2079,-3.0337 10.8753,-4.4231 2.9559,16.5142 1.2437,39.7879 7.6065,49.0937 9.1541,13.3866 27.9483,16.6925 45.7872,24.1972 0,-10.6317 -2.9656,-30.9586 -10.8267,-39.9507 -8.5482,-9.7788 -32.1744,-17.9744 -37.499,-35.1957 4.6123,-1.6286 9.2856,-3.1192 14.0218,-4.4678 1.2475,2.0589 2.6532,4.0116 4.3051,5.8385 10.8767,12.0283 25.0598,6.5339 41.416,25.2685 -1.4355,-10.5345 -2.1387,-26.0546 -11.1443,-33.9041 -1.431,-1.2476 -2.954,-2.4828 -4.5554,-3.7012 8.4561,-1.2689 17.0464,-2.1121 25.7604,-2.4743 4.1438,3.4393 9.0426,7.7432 13.607,13.6109 2.7654,-3.8853 6.1658,-8.519 8.9694,-13.5215 z m -100.1271,86.7865 c 14.0036,9.9875 40.4548,23.0734 51.8837,36.1464 7.8637,8.9947 6.6214,23.3113 6.6214,33.943 -17.839,-7.5047 -33.4285,-15.4151 -42.5832,-28.8031 -7.5851,-11.0918 -9.7043,-25.6035 -15.9219,-41.2863 z" />
  </g>
</svg>
